<?xml version="1.0" encoding="UTF-8"?>
<svg xmlns="http://www.w3.org/2000/svg" xmlns:xlink="http://www.w3.org/1999/xlink" width="24px" height="24px" viewBox="0 0 24 24" version="1.1" fill="#5C11A6">
<g id="surface1">
<path style=" stroke:none;fill-rule:nonzero;fill:#5C11A;fill-opacity:1;" d="M 0.0195312 16.726562 C 0.636719 18.328125 1.625 19.808594 2.898438 21.125 C 4.171875 22.398438 5.691406 23.382812 7.292969 24 L 11.570312 19.726562 C 9.71875 19.644531 7.953125 18.863281 6.554688 17.464844 C 5.15625 16.070312 4.417969 14.261719 4.292969 12.453125 L 0.0195312 16.726562 "/>
<path style=" stroke:none;fill-rule:nonzero;fill:#5C11A;fill-opacity:1;" d="M 23.980469 16.726562 C 23.363281 18.328125 22.375 19.808594 21.101562 21.125 C 19.828125 22.398438 18.308594 23.382812 16.707031 24 L 12.429688 19.726562 C 14.28125 19.644531 16.046875 18.863281 17.445312 17.464844 C 18.84375 16.070312 19.582031 14.261719 19.707031 12.453125 L 23.980469 16.726562 "/>
<path style=" stroke:none;fill-rule:nonzero;fill:#5C11A;fill-opacity:1;" d="M 16.707031 0 C 18.308594 0.617188 19.789062 1.601562 21.101562 2.875 C 22.375 4.152344 23.363281 5.671875 23.980469 7.273438 L 19.707031 11.589844 C 19.625 9.738281 18.84375 7.972656 17.445312 6.574219 C 16.046875 5.179688 14.238281 4.4375 12.429688 4.316406 L 13.128906 3.617188 L 16.707031 0 "/>
<path style=" stroke:none;fill-rule:nonzero;fill:#5C11A;fill-opacity:1;" d="M 7.292969 0 C 5.691406 0.617188 4.210938 1.601562 2.898438 2.875 C 1.625 4.152344 0.636719 5.671875 0.0195312 7.273438 L 4.292969 11.589844 C 4.375 9.738281 5.15625 7.972656 6.554688 6.574219 C 7.953125 5.179688 9.761719 4.4375 11.570312 4.316406 L 7.292969 0 "/>
</g>
</svg>
