<?xml version="1.0" encoding="UTF-8"?>
<svg xmlns="http://www.w3.org/2000/svg" xmlns:xlink="http://www.w3.org/1999/xlink" width="164px" height="24px" viewBox="0 0 161 24" version="1.1">
<g id="surface1">
<path style=" stroke:none;fill-rule:nonzero;fill:rgb(0%,0%,0%);fill-opacity:1;" d="M 37.695312 6.933594 C 38.828125 6.769531 39.925781 6.484375 41.019531 6.445312 C 43.660156 6.363281 45.808594 7.257812 47.269531 9.617188 C 47.796875 10.472656 48.121094 11.449219 48.121094 12.46875 C 48.160156 14.175781 48.203125 15.925781 48.121094 17.636719 C 47.960938 21.097656 45.445312 23.496094 41.871094 23.742188 C 39.355469 23.90625 36.921875 23.496094 34.527344 22.683594 C 34.125 22.5625 34.042969 22.277344 34.042969 21.910156 C 34.042969 20.609375 34.042969 19.304688 34.042969 18.003906 C 34.042969 12.507812 34.042969 6.972656 34.042969 1.480469 C 34.042969 0.542969 34.082031 0.503906 34.976562 0.503906 C 35.664062 0.503906 36.355469 0.503906 37.085938 0.503906 C 37.570312 0.503906 37.734375 0.707031 37.734375 1.195312 C 37.734375 2.945312 37.734375 4.734375 37.734375 6.484375 C 37.695312 6.648438 37.695312 6.851562 37.695312 6.933594 Z M 37.695312 15.277344 C 37.695312 16.660156 37.695312 18.085938 37.695312 19.46875 C 37.695312 19.914062 37.816406 20.121094 38.222656 20.160156 C 39.316406 20.242188 40.414062 20.445312 41.46875 20.402344 C 43.210938 20.28125 44.144531 19.386719 44.308594 17.636719 C 44.429688 15.925781 44.429688 14.136719 44.308594 12.425781 C 44.226562 11.246094 43.578125 10.3125 42.359375 9.984375 C 40.859375 9.539062 39.398438 9.699219 38.019531 10.433594 C 37.855469 10.515625 37.695312 10.839844 37.695312 11.042969 C 37.695312 12.425781 37.695312 13.851562 37.695312 15.277344 Z M 37.695312 15.277344 "/>
<path style=" stroke:none;fill-rule:nonzero;fill:rgb(0%,0%,0%);fill-opacity:1;" d="M 100.664062 6.933594 C 102.085938 6.484375 103.464844 6.363281 104.886719 6.445312 C 108.375 6.648438 110.769531 8.886719 110.972656 12.386719 C 111.132812 15.4375 111.050781 18.492188 111.09375 21.542969 C 111.09375 21.949219 111.09375 22.359375 111.09375 22.804688 C 111.09375 23.210938 110.929688 23.414062 110.484375 23.414062 C 109.671875 23.375 108.902344 23.375 108.089844 23.414062 C 107.523438 23.414062 107.359375 23.171875 107.359375 22.683594 C 107.359375 19.753906 107.359375 16.863281 107.359375 13.933594 C 107.359375 13.445312 107.320312 12.914062 107.238281 12.425781 C 106.996094 10.878906 106.183594 10.066406 104.640625 9.863281 C 103.464844 9.699219 102.328125 9.824219 101.152344 10.148438 C 100.746094 10.269531 100.625 10.472656 100.625 10.921875 C 100.625 14.789062 100.625 18.652344 100.625 22.519531 C 100.625 23.414062 100.585938 23.457031 99.691406 23.457031 C 99.125 23.457031 98.515625 23.457031 97.945312 23.457031 C 96.890625 23.457031 96.890625 23.457031 96.890625 22.4375 C 96.890625 18.246094 96.890625 14.015625 96.890625 9.824219 C 96.890625 7.015625 96.890625 4.164062 96.890625 1.355469 C 96.890625 0.625 96.972656 0.542969 97.703125 0.542969 C 98.433594 0.542969 99.125 0.542969 99.855469 0.542969 C 100.503906 0.542969 100.625 0.664062 100.625 1.316406 C 100.625 2.984375 100.625 4.652344 100.625 6.324219 C 100.664062 6.445312 100.664062 6.648438 100.664062 6.933594 Z M 100.664062 6.933594 "/>
<path style=" stroke:none;fill-rule:nonzero;fill:rgb(0%,0%,0%);fill-opacity:1;" d="M 150.492188 13.121094 C 152.15625 11.289062 153.777344 9.617188 155.277344 7.867188 C 155.96875 7.054688 156.535156 6.851562 157.753906 6.8125 C 158.320312 6.769531 159.175781 6.769531 159.863281 6.769531 C 160.59375 6.8125 160.269531 7.300781 160.148438 7.460938 C 158.363281 9.375 156.578125 11.289062 154.792969 13.160156 C 154.589844 13.363281 154.386719 13.609375 154.144531 13.851562 C 154.792969 14.707031 155.441406 15.5625 156.089844 16.414062 C 157.632812 18.449219 159.214844 20.445312 160.757812 22.480469 C 161.039062 22.847656 161.242188 23.292969 160.351562 23.335938 C 159.417969 23.335938 158.445312 23.335938 157.511719 23.335938 C 157.0625 23.335938 156.78125 23.171875 156.496094 22.847656 C 155.035156 20.894531 153.535156 18.9375 152.03125 16.984375 C 151.910156 16.824219 151.789062 16.660156 151.628906 16.496094 C 151.300781 16.824219 150.976562 17.109375 150.695312 17.472656 C 150.574219 17.597656 150.53125 17.839844 150.53125 18.042969 C 150.53125 19.550781 150.53125 21.054688 150.53125 22.601562 C 150.53125 23.292969 150.449219 23.375 149.761719 23.414062 C 149.03125 23.414062 148.339844 23.414062 147.609375 23.414062 C 146.878906 23.414062 146.839844 23.375 146.839844 22.601562 C 146.839844 20.769531 146.839844 18.980469 146.839844 17.148438 C 146.839844 11.898438 146.839844 6.648438 146.839844 1.398438 C 146.839844 0.542969 146.878906 0.503906 147.730469 0.503906 C 148.421875 0.503906 149.113281 0.503906 149.761719 0.503906 C 150.449219 0.503906 150.53125 0.625 150.53125 1.316406 C 150.53125 5.019531 150.53125 8.683594 150.53125 12.386719 C 150.492188 12.550781 150.492188 12.753906 150.492188 13.121094 Z M 150.492188 13.121094 "/>
<path style=" stroke:none;fill-rule:nonzero;fill:rgb(0%,0%,0%);fill-opacity:1;" d="M 78.023438 6.851562 C 78.308594 3.800781 80.417969 1.398438 83.378906 0.585938 C 86.871094 -0.394531 90.117188 0.175781 93.199219 2.089844 C 93.769531 2.457031 93.808594 2.578125 93.402344 3.1875 C 92.996094 3.800781 92.589844 4.367188 92.183594 4.980469 C 91.941406 5.347656 91.65625 5.425781 91.292969 5.183594 C 90.117188 4.410156 88.777344 3.960938 87.355469 3.839844 C 85.773438 3.71875 84.273438 3.921875 83.015625 5.0625 C 82.121094 5.875 81.757812 6.933594 81.757812 8.113281 C 81.71875 10.675781 81.71875 13.28125 81.757812 15.847656 C 81.796875 18.328125 83.460938 19.996094 85.976562 20.160156 C 88.046875 20.28125 89.996094 19.835938 91.738281 18.695312 C 92.347656 18.289062 92.386719 18.289062 92.792969 18.9375 C 93.199219 19.550781 93.644531 20.160156 94.050781 20.769531 C 94.253906 21.054688 94.296875 21.339844 93.972656 21.585938 C 90.886719 24.148438 84.921875 24.597656 81.472656 22.5625 C 79.121094 21.175781 78.066406 19.019531 77.902344 16.335938 C 77.820312 14.910156 77.902344 13.445312 77.902344 12.019531 C 77.945312 11.9375 77.863281 8.519531 78.023438 6.851562 Z M 78.023438 6.851562 "/>
<path style=" stroke:none;fill-rule:nonzero;fill:rgb(0%,0%,0%);fill-opacity:1;" d="M 64.472656 16.660156 C 64.269531 18.859375 65.121094 20.199219 66.949219 20.402344 C 67.882812 20.484375 68.855469 20.445312 69.746094 20.242188 C 70.601562 20.039062 71.371094 19.589844 72.140625 19.144531 C 72.589844 18.898438 72.832031 18.898438 73.117188 19.347656 C 73.480469 19.875 73.847656 20.363281 74.210938 20.851562 C 74.414062 21.136719 74.414062 21.382812 74.089844 21.625 C 71.128906 23.824219 67.882812 24.433594 64.433594 23.171875 C 62.199219 22.359375 60.863281 20.648438 60.738281 18.207031 C 60.617188 16.171875 60.617188 14.136719 60.738281 12.140625 C 60.984375 9.171875 62.890625 7.175781 65.8125 6.648438 C 67.636719 6.324219 69.421875 6.363281 71.128906 7.175781 C 73.359375 8.234375 74.414062 10.027344 74.535156 12.425781 C 74.617188 13.609375 74.535156 14.828125 74.574219 16.007812 C 74.574219 16.578125 74.375 16.742188 73.847656 16.742188 C 70.925781 16.742188 68.042969 16.742188 65.121094 16.742188 C 64.960938 16.660156 64.714844 16.660156 64.472656 16.660156 Z M 71.003906 13.730469 C 71.085938 12.265625 71.003906 10.839844 69.585938 10.109375 C 68.246094 9.414062 66.828125 9.414062 65.570312 10.3125 C 64.433594 11.125 64.472656 12.425781 64.472656 13.730469 C 66.664062 13.730469 68.816406 13.730469 71.003906 13.730469 Z M 71.003906 13.730469 "/>
<path style=" stroke:none;fill-rule:nonzero;fill:rgb(0%,0%,0%);fill-opacity:1;" d="M 118.195312 16.660156 C 117.871094 19.183594 119.289062 20.648438 121.722656 20.484375 C 123.226562 20.402344 124.5625 19.996094 125.78125 19.144531 C 126.226562 18.859375 126.511719 18.898438 126.796875 19.347656 C 127.121094 19.835938 127.527344 20.324219 127.890625 20.8125 C 128.09375 21.097656 128.132812 21.339844 127.808594 21.585938 C 124.808594 23.824219 121.519531 24.433594 117.992188 23.089844 C 115.800781 22.234375 114.542969 20.527344 114.421875 18.164062 C 114.339844 16.171875 114.296875 14.136719 114.421875 12.140625 C 114.664062 9.171875 116.53125 7.175781 119.453125 6.609375 C 121.277344 6.242188 123.0625 6.324219 124.765625 7.097656 C 127 8.113281 128.054688 9.945312 128.214844 12.347656 C 128.296875 13.527344 128.257812 14.746094 128.257812 15.925781 C 128.257812 16.578125 128.175781 16.660156 127.484375 16.660156 C 124.5625 16.660156 121.683594 16.660156 118.761719 16.660156 C 118.640625 16.660156 118.4375 16.660156 118.195312 16.660156 Z M 124.644531 13.730469 C 124.886719 12.101562 124.441406 10.800781 123.386719 10.1875 C 122.089844 9.457031 120.710938 9.414062 119.410156 10.230469 C 118.113281 11.042969 118.152344 12.386719 118.152344 13.730469 C 120.34375 13.730469 122.496094 13.730469 124.644531 13.730469 Z M 124.644531 13.730469 "/>
<path style=" stroke:none;fill-rule:nonzero;fill:rgb(0%,0%,0%);fill-opacity:1;" d="M 26.453125 13.527344 C 26.496094 12.589844 26.496094 11.734375 26.089844 10.960938 C 25.683594 10.148438 24.871094 9.824219 24.019531 9.78125 C 22.398438 9.660156 20.855469 9.863281 19.433594 10.636719 C 18.949219 10.878906 18.664062 10.839844 18.378906 10.351562 C 18.097656 9.824219 17.730469 9.335938 17.40625 8.847656 C 17.121094 8.4375 17.164062 8.195312 17.609375 7.949219 C 19.558594 6.769531 21.707031 6.402344 23.980469 6.484375 C 25.480469 6.527344 26.902344 6.851562 28.117188 7.789062 C 29.457031 8.804688 30.066406 10.230469 30.148438 11.859375 C 30.269531 14.097656 30.226562 16.335938 30.226562 18.574219 C 30.226562 19.753906 30.226562 20.933594 30.226562 22.113281 C 30.226562 22.519531 30.105469 22.847656 29.660156 22.96875 C 26.738281 23.742188 23.816406 24.1875 20.816406 23.578125 C 19.191406 23.253906 17.730469 22.5625 16.878906 20.972656 C 15.296875 18.003906 16.796875 14.707031 20.042969 13.8125 C 21.871094 13.28125 23.695312 13.324219 25.5625 13.527344 C 25.804688 13.484375 26.089844 13.484375 26.453125 13.527344 Z M 26.453125 16.539062 C 26.007812 16.496094 25.644531 16.414062 25.277344 16.375 C 23.980469 16.292969 22.640625 16.132812 21.34375 16.539062 C 20.488281 16.824219 20.042969 17.433594 20.003906 18.246094 C 19.960938 19.144531 20.328125 19.753906 21.179688 20.121094 C 22.925781 20.851562 24.667969 20.484375 26.414062 20.160156 C 26.453125 18.9375 26.453125 17.757812 26.453125 16.539062 Z M 26.453125 16.539062 "/>
<path style=" stroke:none;fill-rule:nonzero;fill:rgb(0%,0%,0%);fill-opacity:1;" d="M 6.9375 4.042969 C 5.4375 4.042969 1.296875 4.042969 0.648438 4.042969 C 0.242188 4.042969 0 3.878906 0 3.433594 C 0 2.617188 0 1.847656 0 1.03125 C 0 0.625 0.203125 0.460938 0.609375 0.460938 C 0.730469 0.460938 0.894531 0.460938 1.015625 0.460938 C 6.25 0.460938 11.523438 0.460938 16.757812 0.460938 C 17.648438 0.460938 17.691406 0.503906 17.691406 1.398438 C 17.691406 2.007812 17.691406 2.617188 17.691406 3.230469 C 17.691406 3.960938 17.609375 4.042969 16.878906 4.042969 C 15.09375 4.042969 13.308594 4.042969 11.484375 4.042969 C 11.28125 4.042969 11.078125 4.042969 10.753906 4.042969 C 10.753906 4.328125 10.753906 4.574219 10.753906 4.777344 C 10.753906 10.636719 10.753906 16.496094 10.753906 22.398438 C 10.753906 23.375 10.753906 23.375 9.777344 23.375 C 9.007812 23.375 8.277344 23.375 7.507812 23.375 C 7.101562 23.375 6.898438 23.210938 6.9375 22.804688 C 6.9375 22.644531 6.9375 22.480469 6.9375 22.277344 C 6.9375 16.457031 6.9375 10.597656 6.9375 4.777344 C 6.9375 4.613281 6.9375 4.367188 6.9375 4.042969 Z M 6.9375 4.042969 "/>
<path style=" stroke:none;fill-rule:nonzero;fill:rgb(0%,0%,0%);fill-opacity:1;" d="M 131.339844 11.289062 C 131.867188 8.683594 133.652344 7.175781 136.167969 6.648438 C 138.644531 6.117188 141.039062 6.484375 143.269531 7.789062 C 143.878906 8.152344 143.878906 8.277344 143.511719 8.847656 C 143.269531 9.253906 142.984375 9.617188 142.742188 10.027344 C 142.214844 10.878906 142.214844 10.839844 141.320312 10.433594 C 140.308594 9.945312 139.253906 9.699219 138.117188 9.742188 C 136.007812 9.824219 134.949219 10.921875 134.910156 12.996094 C 134.910156 14.421875 134.871094 15.886719 134.910156 17.3125 C 134.949219 19.183594 136.007812 20.242188 137.832031 20.363281 C 139.292969 20.484375 140.589844 20.121094 141.808594 19.347656 C 142.296875 19.019531 142.621094 19.101562 142.902344 19.589844 C 143.226562 20.121094 143.632812 20.648438 144 21.175781 C 144.242188 21.503906 144.203125 21.746094 143.835938 21.992188 C 140.957031 23.90625 137.871094 24.269531 134.667969 22.96875 C 132.355469 22.03125 131.300781 20.121094 131.136719 17.675781 C 131.097656 16.78125 131.136719 15.847656 131.136719 14.949219 C 131.136719 14.625 131.097656 12.507812 131.339844 11.289062 Z M 131.339844 11.289062 "/>
<path style=" stroke:none;fill-rule:nonzero;fill:rgb(0%,0%,0%);fill-opacity:1;" d="M 51.488281 9.742188 C 51.488281 6.890625 51.488281 4.042969 51.488281 1.234375 C 51.488281 0.585938 51.570312 0.460938 52.21875 0.460938 C 52.949219 0.460938 53.679688 0.460938 54.410156 0.460938 C 55.058594 0.460938 55.179688 0.585938 55.179688 1.234375 C 55.179688 3.472656 55.179688 5.710938 55.179688 7.949219 C 55.179688 11.246094 55.179688 14.585938 55.222656 17.882812 C 55.222656 18.164062 55.261719 18.492188 55.34375 18.777344 C 55.585938 19.875 56.113281 20.324219 57.25 20.363281 C 57.65625 20.363281 58.0625 20.363281 58.425781 20.324219 C 58.792969 20.324219 58.996094 20.484375 58.996094 20.851562 C 58.996094 21.625 59.035156 22.359375 58.953125 23.132812 C 58.953125 23.335938 58.710938 23.660156 58.550781 23.660156 C 57.292969 23.78125 55.992188 23.90625 54.734375 23.414062 C 52.789062 22.683594 51.933594 21.097656 51.609375 19.183594 C 51.488281 18.410156 51.488281 17.636719 51.488281 16.863281 C 51.488281 14.503906 51.488281 12.140625 51.488281 9.742188 Z M 51.488281 9.742188 "/>
</g>
</svg>
